<svg width="154" height="94" viewBox="0 0 154 94" fill="none" xmlns="http://www.w3.org/2000/svg">
<path fill-rule="evenodd" clip-rule="evenodd" d="M129.433 11.9106C129.266 19.3787 134.568 22.9012 134.568 22.9012C134.568 22.9012 140.118 18.844 140.279 11.5672C140.444 4.27754 134.345 0 134.345 0C134.345 0 129.596 4.44144 129.433 11.9106ZM119.435 29.6685C121.627 36.6075 128.078 38.9094 128.078 38.9094C128.078 38.9094 132.193 34.0089 129.949 26.8864C127.696 19.7658 121.91 16.8755 121.91 16.8755C121.91 16.8755 117.247 22.7307 119.435 29.6685ZM141.275 26.208C137.012 32.3403 139.478 38.2419 139.478 38.2419C139.478 38.2419 146.327 37.9519 150.472 31.9672C154.63 25.986 151.929 19.0209 151.929 19.0209C151.929 19.0209 145.534 20.0703 141.275 26.208ZM125.311 46.5622C126.611 53.9184 121.897 58.2454 121.897 58.2454C121.897 58.2454 115.796 55.1148 114.526 47.9503C113.272 40.7807 118.648 35.5846 118.648 35.5846C118.648 35.5846 124.009 39.2101 125.311 46.5622ZM114.595 59.4099C113.987 51.9547 108.994 47.8404 108.994 47.8404C108.994 47.8404 103.153 52.5079 103.745 59.7662C104.337 67.0245 110.104 70.7176 110.104 70.7176C110.104 70.7176 115.199 66.8598 114.595 59.4099ZM94.6623 82.3268C94.6623 82.3268 90.1948 77.1188 91.7087 69.9886C93.2268 62.8595 100.16 60.077 100.16 60.077C100.16 60.077 103.752 65.4682 102.202 72.786C100.647 80.1026 94.6623 82.3268 94.6623 82.3268ZM135.485 53.1477C135.485 53.1477 134.871 46.7737 140.731 42.1709C146.605 37.5673 153.015 38.454 153.015 38.454C153.015 38.454 153.555 45.9233 147.831 50.4109C142.105 54.9029 135.485 53.1477 135.485 53.1477ZM134.099 57.595C127.363 60.7836 126.554 67.139 126.554 67.139C126.554 67.139 132.623 70.3207 139.188 67.224C145.753 64.1273 146.882 56.7149 146.882 56.7149C146.882 56.7149 140.837 54.416 134.099 57.595ZM115.795 77.8046C115.795 77.8046 118.477 71.9834 125.85 70.9984C133.232 70.0115 138.289 74.0419 138.289 74.0419C138.289 74.0419 134.982 80.765 127.798 81.727C120.608 82.6922 115.795 77.8046 115.795 77.8046ZM123.159 86.7121C123.159 86.7121 118.604 82.1047 111.17 82.1922C103.74 82.2852 100.398 87.7415 100.398 87.7415C100.398 87.7415 104.591 93.1743 111.836 93.0913C119.087 92.987 123.159 86.7121 123.159 86.7121ZM132.731 26.8878L136.221 26.1934C136.292 26.575 143.05 64.5912 88.3826 90.8828L86.8658 87.6723C138.902 62.6355 133.011 28.3303 132.731 26.8878ZM11.7542 26.5083C16.0166 32.6406 13.5511 38.5422 13.5511 38.5422C13.5511 38.5422 6.70221 38.2522 2.55691 32.2675C-1.60115 26.2863 1.09957 19.3212 1.09957 19.3212C1.09957 19.3212 7.49492 20.3706 11.7542 26.5083ZM24.9517 39.2097C24.9517 39.2097 31.4026 36.9078 33.5947 29.9688C35.7826 23.031 31.1199 17.1757 31.1199 17.1757C31.1199 17.1757 25.3332 20.0661 23.0802 27.1867C20.8369 34.3092 24.9517 39.2097 24.9517 39.2097ZM31.1324 58.5457C31.1324 58.5457 26.4184 54.2187 27.7185 46.8624C29.0197 39.5104 34.3812 35.8849 34.3812 35.8849C34.3812 35.8849 39.757 41.081 38.5027 48.2506C37.2334 55.4151 31.1324 58.5457 31.1324 58.5457ZM44.0354 48.1407C44.0354 48.1407 39.0422 52.255 38.4348 59.7102C37.8305 67.1601 42.9252 71.0179 42.9252 71.0179C42.9252 71.0179 48.693 67.3248 49.2847 60.0665C49.8764 52.8082 44.0354 48.1407 44.0354 48.1407ZM61.3204 70.2889C62.8342 77.4191 58.3668 82.6271 58.3668 82.6271C58.3668 82.6271 52.3821 80.4029 50.8274 73.0863C49.2769 65.7685 52.8694 60.3773 52.8694 60.3773C52.8694 60.3773 59.8022 63.1598 61.3204 70.2889ZM18.4611 23.2015C18.4611 23.2015 23.7636 19.679 23.5964 12.2109C23.4335 4.74174 18.6843 0.300293 18.6843 0.300293C18.6843 0.300293 12.585 4.57783 12.7499 11.8675C12.9115 19.1443 18.4611 23.2015 18.4611 23.2015ZM12.298 42.4712C18.1581 47.074 17.5438 53.448 17.5438 53.448C17.5438 53.448 10.9237 55.2032 5.19819 50.7112C-0.526166 46.2235 0.0135873 38.7543 0.0135873 38.7543C0.0135873 38.7543 6.4239 37.8676 12.298 42.4712ZM26.4752 67.4392C26.4752 67.4392 25.6664 61.0839 18.9304 57.8953C12.1925 54.7163 6.147 57.0152 6.147 57.0152C6.147 57.0152 7.27566 64.4276 13.8409 67.5243C20.4062 70.621 26.4752 67.4392 26.4752 67.4392ZM27.1795 71.2987C34.5522 72.2837 37.2347 78.1049 37.2347 78.1049C37.2347 78.1049 32.4213 82.9925 25.2318 82.0273C18.0477 81.0653 14.7403 74.3422 14.7403 74.3422C14.7403 74.3422 19.7971 70.3118 27.1795 71.2987ZM41.8586 82.4925C34.4252 82.405 29.8698 87.0124 29.8698 87.0124C29.8698 87.0124 33.9424 93.2873 41.1932 93.3916C48.4382 93.4746 52.631 88.0418 52.631 88.0418C52.631 88.0418 49.2889 82.5855 41.8586 82.4925ZM16.8083 26.4937L20.2978 27.188C20.0183 28.6306 14.1273 62.9358 66.1634 87.9726L64.6466 91.1831C9.97913 64.8915 16.7372 26.8753 16.8083 26.4937Z" fill="url(#paint0_linear_149800_121)"/>
<defs>
<linearGradient id="paint0_linear_149800_121" x1="76.5145" y1="0" x2="76.5145" y2="93.3926" gradientUnits="userSpaceOnUse">
<stop stop-color="#DCDDE0"/>
<stop offset="1" stop-color="#DCDDE0" stop-opacity="0"/>
</linearGradient>
</defs>
</svg>
